<svg width="59" height="55" viewBox="0 0 59 55" fill="none" xmlns="http://www.w3.org/2000/svg">
<path d="M49.0895 41.5439C47.7066 42.7597 46.1853 43.8072 44.5455 44.705C42.8859 45.6029 41.1275 46.295 39.2902 46.7813C37.4528 47.2676 35.5166 47.5295 33.5212 47.5295C30.4984 47.5295 27.5546 47.0619 24.7886 46.1453C22.0819 45.2475 19.6716 43.882 17.6564 42.105C15.6412 40.3655 13.5272 37.4475 12.2826 34.6978C11.1959 32.3036 10.7415 29.7223 10.7415 25.7381C10.7415 22.9137 11.433 19.7899 12.6184 17.1338C13.7643 14.5899 15.3646 12.3453 17.3601 10.4748C19.3357 8.62302 21.7461 7.10791 24.5318 5.98561C27.0212 4.99424 29.9649 4.50791 33.5409 4.50791C36.3661 4.50791 39.0728 4.93813 41.5424 5.77985C43.9528 6.60288 46.0667 7.78129 47.8251 9.2964C49.4452 10.6993 50.4528 12.4014 51.5196 14.7022C52.4482 16.6662 52.8038 18.4058 52.8038 21.118C52.8038 23.3252 52.3889 25.4388 51.5789 27.3655C50.7689 29.2547 50.1564 30.4144 48.9315 31.8547C47.6473 33.3137 46.936 34.118 45.5728 34.8662C43.9923 35.7453 42.7871 36.1568 41.819 36.1568C41.0485 36.1568 40.8114 35.9885 40.7917 35.9698C40.6731 35.8763 40.5743 35.7453 40.5151 35.4273C40.4558 34.9971 40.5151 34.4173 40.6929 33.7626C40.8905 33.0144 41.1868 32.3036 41.6215 31.3122L49.5242 11.223H44.3281L43.4193 13.505C42.7081 12.7194 41.8585 12.046 40.9102 11.5223C38.6579 10.2878 36.7613 9.78273 34.3509 9.78273C31.5455 9.78273 28.9178 10.4748 26.5865 11.8403C24.3145 13.1683 22.3585 14.8892 20.7978 16.9468C19.2567 18.9669 18.8616 20.0518 18.1503 22.0532L18.0318 22.3899C17.1823 24.7842 16.7476 27.141 16.7476 29.4043C16.7476 30.9194 17.044 32.3971 17.6169 33.7626C18.1898 35.1468 18.9801 36.3439 19.968 37.3165C20.936 38.3266 22.1412 39.1309 23.5637 39.7482C24.9467 40.3468 26.468 40.6647 28.1078 40.6647C29.9254 40.6647 31.585 40.3842 33.5212 39.7482C34.588 39.3928 35.5364 38.8878 36.4452 38.1583C36.6427 38.4763 36.8996 38.7568 37.1959 39.0187C38.3418 40.1036 39.8631 40.6647 41.6807 40.6647C43.4984 40.6647 45.4543 40.0849 47.8053 38.8317C49.8996 37.7094 51.1245 36.4187 52.626 34.7165C54.3251 32.7899 55.1747 31.1439 56.0835 28.9554C57.1108 26.5424 57.6245 23.905 57.6245 21.1367C57.6245 17.6576 57.1306 15.282 55.8661 12.6633C54.5227 9.89496 53.1595 7.66906 50.9269 5.79856C48.7142 3.92806 46.0667 2.48777 43.0637 1.4777C40.1002 0.48633 36.9193 0 33.5804 0C29.5105 0 26.0333 0.579855 22.971 1.75827C19.6519 3.03021 16.7081 4.8259 14.2187 7.0705C11.7294 9.35252 9.73392 12.0835 8.31143 15.1511C6.82966 18.3309 5.99988 22.1842 5.99988 25.7568C5.99988 30.564 6.6321 33.9309 8.11386 36.9986C9.75368 40.3655 12.4209 43.8259 14.8905 45.846C17.4786 47.9784 20.4421 49.5496 23.702 50.5223C26.9224 51.495 30.2613 52 33.5804 52C35.8525 52 38.1838 51.7007 40.5151 51.1209C42.8661 50.5036 45.0591 49.6619 47.0348 48.5957C49.05 47.5295 50.9862 46.2014 52.7643 44.6302C54.5424 43.059 56.5576 40.6086 57.2689 39.4115C57.6443 38.7568 57.8813 38.2705 57.9999 37.9712H52.547C51.4999 39.187 50.3737 40.4029 49.0895 41.5439ZM35.2202 32.659C34.3312 33.7252 33.7582 34.3611 33.0667 34.7914C32.2962 35.2964 31.6838 35.6144 30.8935 35.7827H30.8737C30.0835 35.9698 29.2339 36.082 28.3646 36.082C27.357 36.082 26.4482 35.9137 25.6382 35.577C24.8084 35.2403 24.1169 34.7914 23.5044 34.1741C22.9117 33.5755 22.4178 32.8647 22.0622 32.0417C21.7263 31.2187 21.5485 30.3022 21.5485 29.3295C21.5485 27.646 21.8844 25.813 22.5561 23.905C22.6351 23.6806 22.7142 23.4374 22.7734 23.2691C23.3069 21.7165 23.5835 21.2302 24.5713 19.6777C25.4801 18.2561 26.9026 16.9468 28.8783 15.6935C30.4391 14.7022 32.1777 14.1971 34.0743 14.1971C34.8449 14.1971 35.6549 14.2906 36.5044 14.459C37.1169 14.5899 37.433 14.7583 38.0455 15.095L38.085 15.1137C38.164 15.1511 38.243 15.1885 38.3418 15.2446L38.4011 15.282C39.0926 15.6561 39.705 16.1424 40.2385 16.741C40.6534 17.2086 40.9892 17.8072 41.2461 18.5554L37.275 29.1237C36.6625 30.5453 35.971 31.7424 35.2202 32.659Z" fill="#464646"/>
</svg>
