<svg width="55" height="55" viewBox="0 0 55 55" fill="none" xmlns="http://www.w3.org/2000/svg">
<path d="M54.9921 27.5C54.9921 31.468 55.0031 35.4361 54.9921 39.4152C54.9699 45.1788 52.2876 49.4461 47.4994 52.4609C44.6951 54.2122 41.5806 54.988 38.2776 54.988C31.0509 54.988 23.8353 55.0213 16.6086 54.9769C11.5876 54.9437 7.26487 53.1703 3.83995 49.4461C1.72293 47.1406 0.459365 44.4251 0.0935972 41.2883C0.0160101 40.6233 0.00492617 39.9694 0.00492617 39.3043C0.00492617 31.4015 -0.00615771 23.4987 0.00492617 15.5959C0.0381778 9.82121 2.72048 5.55391 7.50871 2.5391C10.3351 0.776758 13.4608 0.0119706 16.7859 0.0119706C23.9904 0.0119706 31.195 -0.021281 38.3995 0.0230545C43.4427 0.0563061 47.7765 1.84081 51.2014 5.58716C53.2962 7.88153 54.5487 10.5971 54.9034 13.7006C55.0475 14.9198 54.981 16.139 54.9921 17.3472C55.0031 20.7388 54.9921 24.1194 54.9921 27.5ZM4.11705 27.5C4.11705 31.5678 4.10596 35.6245 4.11705 39.6923C4.12813 42.4854 5.14785 44.8906 7.05427 46.8857C9.61465 49.5569 12.8068 50.8537 16.4756 50.8759C23.7577 50.9202 31.0287 50.887 38.3108 50.887C40.6606 50.887 42.8995 50.3771 44.939 49.2022C48.7518 47.0187 50.9021 43.8044 50.9021 39.3043C50.9021 31.3018 50.9021 23.3103 50.9021 15.3077C50.9021 12.5368 49.8935 10.1426 47.9981 8.15862C45.4599 5.47633 42.2567 4.15734 38.599 4.13517C31.2393 4.07976 23.8907 4.11301 16.531 4.11301C14.2366 4.11301 12.0642 4.65612 10.0691 5.78667C6.26732 7.98128 4.10596 11.1956 4.11705 15.6957C4.11705 19.6304 4.11705 23.5652 4.11705 27.5Z" fill="#464646"/>
<path d="M27.537 39.249C20.3769 39.249 14.6354 33.5297 14.6465 26.3917C14.6576 19.4421 20.4766 13.745 27.5814 13.7561C34.7194 13.7561 40.483 19.4864 40.4719 26.5579C40.4608 33.563 34.664 39.249 27.537 39.249ZM27.537 35.148C32.4029 35.148 36.3709 31.2797 36.3709 26.5247C36.3709 21.7475 32.4361 17.8571 27.5814 17.8571C22.7156 17.8571 18.7475 21.7254 18.7475 26.4804C18.7475 31.2575 22.6823 35.148 27.537 35.148Z" fill="#464646"/>
<path d="M39.2528 12.7132C39.2528 11.1393 40.461 9.87573 41.9684 9.87573C43.4758 9.87573 44.6839 11.1504 44.6839 12.7132C44.6839 14.2539 43.4758 15.5174 41.9905 15.5285C40.4831 15.5396 39.2528 14.2871 39.2528 12.7132Z" fill="#464646"/>
</svg>
