<svg width="55" height="55" viewBox="0 0 55 55" fill="none" xmlns="http://www.w3.org/2000/svg">
<path d="M55 43.4375C55 44.1406 54.8698 45.0586 54.6094 46.1914C54.349 47.3242 54.0755 48.2161 53.7891 48.8672C53.2422 50.1693 51.6536 51.5495 49.0234 53.0078C46.5755 54.3359 44.1536 55 41.7578 55C41.0547 55 40.3711 54.9544 39.707 54.8633C39.043 54.7721 38.2943 54.6094 37.4609 54.375C36.6276 54.1406 36.0091 53.9518 35.6055 53.8086C35.2018 53.6654 34.4792 53.3984 33.4375 53.0078C32.3958 52.6172 31.7578 52.3828 31.5234 52.3047C28.9714 51.3932 26.6927 50.3125 24.6875 49.0625C21.3542 47.0052 17.9102 44.1992 14.3555 40.6445C10.8008 37.0898 7.99479 33.6458 5.9375 30.3125C4.6875 28.3073 3.60677 26.0286 2.69531 23.4766C2.61719 23.2422 2.38281 22.6042 1.99219 21.5625C1.60156 20.5208 1.33464 19.7982 1.19141 19.3945C1.04818 18.9909 0.859375 18.3724 0.625 17.5391C0.390625 16.7057 0.227865 15.957 0.136719 15.293C0.0455729 14.6289 0 13.9453 0 13.2422C0 10.8464 0.664062 8.42448 1.99219 5.97656C3.45052 3.34635 4.83073 1.75781 6.13281 1.21094C6.78385 0.924479 7.67578 0.651042 8.80859 0.390625C9.94141 0.130208 10.8594 0 11.5625 0C11.9271 0 12.2005 0.0390625 12.3828 0.117188C12.8516 0.273438 13.5417 1.26302 14.4531 3.08594C14.7396 3.58073 15.1302 4.28385 15.625 5.19531C16.1198 6.10677 16.5755 6.93359 16.9922 7.67578C17.4089 8.41797 17.8125 9.11458 18.2031 9.76562C18.2812 9.86979 18.5091 10.1953 18.8867 10.7422C19.2643 11.2891 19.5443 11.7513 19.7266 12.1289C19.9089 12.5065 20 12.8776 20 13.2422C20 13.763 19.6289 14.4141 18.8867 15.1953C18.1445 15.9766 17.3372 16.6927 16.4648 17.3438C15.5924 17.9948 14.7852 18.6849 14.043 19.4141C13.3008 20.1432 12.9297 20.7422 12.9297 21.2109C12.9297 21.4453 12.9948 21.7383 13.125 22.0898C13.2552 22.4414 13.3659 22.7083 13.457 22.8906C13.5482 23.0729 13.7305 23.3854 14.0039 23.8281C14.2773 24.2708 14.4271 24.5182 14.4531 24.5703C16.4323 28.138 18.6979 31.1979 21.25 33.75C23.8021 36.3021 26.862 38.5677 30.4297 40.5469C30.4818 40.5729 30.7292 40.7227 31.1719 40.9961C31.6146 41.2695 31.9271 41.4518 32.1094 41.543C32.2917 41.6341 32.5586 41.7448 32.9102 41.875C33.2617 42.0052 33.5547 42.0703 33.7891 42.0703C34.2578 42.0703 34.8568 41.6992 35.5859 40.957C36.3151 40.2148 37.0052 39.4076 37.6562 38.5352C38.3073 37.6628 39.0234 36.8555 39.8047 36.1133C40.5859 35.3711 41.237 35 41.7578 35C42.1224 35 42.4935 35.0911 42.8711 35.2734C43.2487 35.4557 43.7109 35.7357 44.2578 36.1133C44.8047 36.4909 45.1302 36.7188 45.2344 36.7969C45.8854 37.1875 46.582 37.5911 47.3242 38.0078C48.0664 38.4245 48.8932 38.8802 49.8047 39.375C50.7161 39.8698 51.4193 40.2604 51.9141 40.5469C53.737 41.4583 54.7266 42.1484 54.8828 42.6172C54.9609 42.7995 55 43.0729 55 43.4375Z" fill="#464646"/>
</svg>
